<svg height='300px' width='300px'  fill="#000000" xmlns="http://www.w3.org/2000/svg" xmlns:xlink="http://www.w3.org/1999/xlink" version="1.1" x="0px" y="0px" viewBox="0 0 48 48" style="enable-background:new 0 0 48 48;" xml:space="preserve">
<!--
Icon from Vectors Market. Licensed under CC-BY.
Icon source: https://thenounproject.com/term/ear/1070048/
-->
<g><path d="M37.8,13.2c0-0.2-4.5-15.3-16.5-12.9c-1.1,0.2-16,6.2-11.5,18c0.2,0.5,0.8,0.8,1.3,0.6c0.5-0.2,0.8-0.8,0.6-1.3   C8.9,10.3,15,4.7,21.8,2.2c10.2-2,14,11,14.2,11.5c5.9,19.4-12,28.2-12.8,28.6c-1,0.5-6.8,5.1-9.7,3.3c-2.4-1.5-1.5-6.5-1.5-7.5   v-2.4c0-0.6-0.4-1-1-1s-1,0.4-1,1V38c-0.1,0.9-1,7.2,2.5,9.3c3.4,2.1,8.4-0.9,11.7-3.2C25.5,43.3,44,33.5,37.8,13.2z"></path><path d="M16.1,26.2l-2.1-2.8c-0.3-0.4-1-0.5-1.4-0.2c-0.4,0.3-0.5,1-0.2,1.4l1.9,2.6c0.7,2.6-1.6,4.1-1.7,4.2   c-0.5,0.3-0.6,0.9-0.3,1.4c1.9,2.9,5.9,1.2,8.7-0.9c4.8,0.3,6.5-3.7,5.8-8c-0.4-5.1-8-7.9-9.1-8.3c-0.9-0.6-1.3-1.2-1.4-2   c-0.1-2.1,2.7-4.9,3.9-5.8c6.2-3.2,10,3.8,11.5,10.4c2.9,10.8-6.4,17.1-6.8,17.4c-0.5,0.3-0.6,0.9-0.3,1.4c0.3,0.5,0.9,0.6,1.4,0.3   c0.1-0.1,10.8-7.4,7.6-19.5c-0.1-0.4-2-9.5-7.4-12.1c-2.9-1.4-6.1-0.2-7.1,0.5c-0.5,0.4-4.9,3.9-4.7,7.5c0.1,1.8,1.6,3.4,2.6,3.8   c2.1,0.7,7.6,3.2,7.9,6.6c0.2,3.5-0.2,6.2-4,5.8c-0.3,0-0.5,0.1-0.7,0.2c-1.2,0.9-3.9,2.6-5.4,2.1C16.8,30.1,16.9,27.2,16.1,26.2z"></path></g>

</svg>
